<mxfile host="65bd71144e">
    <diagram id="BVYDqbR2yTgIgSJ34y3t" name="Page-1">
        <mxGraphModel dx="1275" dy="761" grid="1" gridSize="10" guides="1" tooltips="1" connect="1" arrows="1" fold="1" page="1" pageScale="1" pageWidth="850" pageHeight="1100" math="0" shadow="0">
            <root>
                <mxCell id="0"/>
                <mxCell id="1" parent="0"/>
                <mxCell id="2" value="Subscription" style="swimlane;whiteSpace=wrap;html=1;" vertex="1" parent="1">
                    <mxGeometry x="380" y="40" width="270" height="330" as="geometry"/>
                </mxCell>
                <mxCell id="3" value="Fee : decimal" style="text;html=1;align=center;verticalAlign=middle;resizable=0;points=[];autosize=1;strokeColor=none;fillColor=none;" vertex="1" parent="2">
                    <mxGeometry x="-5" y="60" width="100" height="30" as="geometry"/>
                </mxCell>
                <mxCell id="8" value="CanDownload : bool" style="text;html=1;align=center;verticalAlign=middle;resizable=0;points=[];autosize=1;strokeColor=none;fillColor=none;" vertex="1" parent="2">
                    <mxGeometry x="-5" y="110" width="130" height="30" as="geometry"/>
                </mxCell>
                <mxCell id="9" value="AvailableContent : string[]" style="text;html=1;align=center;verticalAlign=middle;resizable=0;points=[];autosize=1;strokeColor=none;fillColor=none;" vertex="1" parent="2">
                    <mxGeometry x="-10" y="130" width="160" height="30" as="geometry"/>
                </mxCell>
                <mxCell id="10" value="MinDuration : TimeSpan" style="text;html=1;align=center;verticalAlign=middle;resizable=0;points=[];autosize=1;strokeColor=none;fillColor=none;" vertex="1" parent="2">
                    <mxGeometry x="-5" y="85" width="150" height="30" as="geometry"/>
                </mxCell>
                <mxCell id="13" value="ExpieryDate : DateTime" style="text;html=1;align=center;verticalAlign=middle;resizable=0;points=[];autosize=1;strokeColor=none;fillColor=none;" vertex="1" parent="2">
                    <mxGeometry x="-5" y="30" width="150" height="30" as="geometry"/>
                </mxCell>
                <mxCell id="16" value="" style="line;strokeWidth=4;html=1;perimeter=backbonePerimeter;points=[];outlineConnect=0;" vertex="1" parent="2">
                    <mxGeometry y="160" width="270" height="10" as="geometry"/>
                </mxCell>
                <mxCell id="17" value="SetExpieryDate(DateTime expieryDate) : void" style="text;html=1;align=center;verticalAlign=middle;resizable=0;points=[];autosize=1;strokeColor=none;fillColor=none;" vertex="1" parent="2">
                    <mxGeometry x="-12.5" y="170" width="270" height="30" as="geometry"/>
                </mxCell>
                <mxCell id="18" value="GetExpieryDate() : DateTime" style="text;html=1;align=center;verticalAlign=middle;resizable=0;points=[];autosize=1;strokeColor=none;fillColor=none;" vertex="1" parent="2">
                    <mxGeometry x="-10" y="200" width="180" height="30" as="geometry"/>
                </mxCell>
                <mxCell id="19" value="Cancel() : void" style="text;html=1;align=center;verticalAlign=middle;resizable=0;points=[];autosize=1;strokeColor=none;fillColor=none;" vertex="1" parent="2">
                    <mxGeometry x="-5" y="225" width="100" height="30" as="geometry"/>
                </mxCell>
                <mxCell id="20" value="Continue(TimeSpan timePeriod) : Subscription" style="text;html=1;align=center;verticalAlign=middle;resizable=0;points=[];autosize=1;strokeColor=none;fillColor=none;" vertex="1" parent="2">
                    <mxGeometry x="5" y="250" width="270" height="30" as="geometry"/>
                </mxCell>
                <mxCell id="21" value="IsValid() : bool" style="text;html=1;align=center;verticalAlign=middle;resizable=0;points=[];autosize=1;strokeColor=none;fillColor=none;" vertex="1" parent="2">
                    <mxGeometry y="275" width="100" height="30" as="geometry"/>
                </mxCell>
                <mxCell id="22" value="ToString() : string" style="text;html=1;align=center;verticalAlign=middle;resizable=0;points=[];autosize=1;strokeColor=none;fillColor=none;" vertex="1" parent="2">
                    <mxGeometry x="5" y="300" width="110" height="30" as="geometry"/>
                </mxCell>
                <mxCell id="23" value="EducationalSubscription" style="swimlane;whiteSpace=wrap;html=1;" vertex="1" parent="1">
                    <mxGeometry x="20" y="495" width="300" height="110" as="geometry"/>
                </mxCell>
                <mxCell id="26" value="Fee : decimal = 10.0m" style="text;html=1;align=center;verticalAlign=middle;resizable=0;points=[];autosize=1;strokeColor=none;fillColor=none;" vertex="1" parent="23">
                    <mxGeometry y="30" width="140" height="30" as="geometry"/>
                </mxCell>
                <mxCell id="28" value="MinDuration : TimeSpan = TimeSpan.FromDays(30)" style="text;html=1;align=center;verticalAlign=middle;resizable=0;points=[];autosize=1;strokeColor=none;fillColor=none;" vertex="1" parent="23">
                    <mxGeometry y="50" width="300" height="30" as="geometry"/>
                </mxCell>
                <mxCell id="30" value="CanDownload : bool = true" style="text;html=1;align=center;verticalAlign=middle;resizable=0;points=[];autosize=1;strokeColor=none;fillColor=none;" vertex="1" parent="23">
                    <mxGeometry y="70" width="170" height="30" as="geometry"/>
                </mxCell>
                <mxCell id="33" value="DomesticSubscription" style="swimlane;whiteSpace=wrap;html=1;" vertex="1" parent="1">
                    <mxGeometry x="365" y="495" width="300" height="110" as="geometry"/>
                </mxCell>
                <mxCell id="34" value="Fee : decimal = 15.0m" style="text;html=1;align=center;verticalAlign=middle;resizable=0;points=[];autosize=1;strokeColor=none;fillColor=none;" vertex="1" parent="33">
                    <mxGeometry y="30" width="140" height="30" as="geometry"/>
                </mxCell>
                <mxCell id="35" value="MinDuration : TimeSpan = TimeSpan.FromDays(7)" style="text;html=1;align=center;verticalAlign=middle;resizable=0;points=[];autosize=1;strokeColor=none;fillColor=none;" vertex="1" parent="33">
                    <mxGeometry x="5" y="50" width="290" height="30" as="geometry"/>
                </mxCell>
                <mxCell id="36" value="CanDownload : bool = false" style="text;html=1;align=center;verticalAlign=middle;resizable=0;points=[];autosize=1;strokeColor=none;fillColor=none;" vertex="1" parent="33">
                    <mxGeometry y="70" width="170" height="30" as="geometry"/>
                </mxCell>
                <mxCell id="37" value="DomesticSubscription" style="swimlane;whiteSpace=wrap;html=1;" vertex="1" parent="1">
                    <mxGeometry x="720" y="495" width="300" height="110" as="geometry"/>
                </mxCell>
                <mxCell id="38" value="Fee : decimal = 20.0m" style="text;html=1;align=center;verticalAlign=middle;resizable=0;points=[];autosize=1;strokeColor=none;fillColor=none;" vertex="1" parent="37">
                    <mxGeometry y="30" width="140" height="30" as="geometry"/>
                </mxCell>
                <mxCell id="39" value="MinDuration : TimeSpan = TimeSpan.FromDays(14)" style="text;html=1;align=center;verticalAlign=middle;resizable=0;points=[];autosize=1;strokeColor=none;fillColor=none;" vertex="1" parent="37">
                    <mxGeometry y="50" width="300" height="30" as="geometry"/>
                </mxCell>
                <mxCell id="40" value="CanDownload : bool = true" style="text;html=1;align=center;verticalAlign=middle;resizable=0;points=[];autosize=1;strokeColor=none;fillColor=none;" vertex="1" parent="37">
                    <mxGeometry y="70" width="170" height="30" as="geometry"/>
                </mxCell>
                <mxCell id="41" value="" style="endArrow=classic;html=1;entryX=0.5;entryY=1;entryDx=0;entryDy=0;" edge="1" parent="1" target="2">
                    <mxGeometry width="50" height="50" relative="1" as="geometry">
                        <mxPoint x="160" y="490" as="sourcePoint"/>
                        <mxPoint x="640" y="300" as="targetPoint"/>
                        <Array as="points">
                            <mxPoint x="160" y="430"/>
                            <mxPoint x="515" y="430"/>
                        </Array>
                    </mxGeometry>
                </mxCell>
                <mxCell id="42" value="" style="endArrow=classic;html=1;entryX=0.5;entryY=1;entryDx=0;entryDy=0;" edge="1" parent="1" target="2">
                    <mxGeometry width="50" height="50" relative="1" as="geometry">
                        <mxPoint x="515" y="490" as="sourcePoint"/>
                        <mxPoint x="640" y="300" as="targetPoint"/>
                    </mxGeometry>
                </mxCell>
                <mxCell id="43" value="" style="endArrow=classic;html=1;exitX=0.5;exitY=0;exitDx=0;exitDy=0;entryX=0.5;entryY=1;entryDx=0;entryDy=0;" edge="1" parent="1" source="37" target="2">
                    <mxGeometry width="50" height="50" relative="1" as="geometry">
                        <mxPoint x="590" y="350" as="sourcePoint"/>
                        <mxPoint x="640" y="300" as="targetPoint"/>
                        <Array as="points">
                            <mxPoint x="870" y="430"/>
                            <mxPoint x="515" y="430"/>
                        </Array>
                    </mxGeometry>
                </mxCell>
                <mxCell id="44" value="SubscribtionTypes" style="swimlane;fontStyle=0;childLayout=stackLayout;horizontal=1;startSize=26;fillColor=none;horizontalStack=0;resizeParent=1;resizeParentMax=0;resizeLast=0;collapsible=1;marginBottom=0;html=1;" vertex="1" parent="1">
                    <mxGeometry x="930" y="153" width="140" height="104" as="geometry"/>
                </mxCell>
                <mxCell id="45" value="Domestic = 1" style="text;strokeColor=none;fillColor=none;align=left;verticalAlign=top;spacingLeft=4;spacingRight=4;overflow=hidden;rotatable=0;points=[[0,0.5],[1,0.5]];portConstraint=eastwest;whiteSpace=wrap;html=1;" vertex="1" parent="44">
                    <mxGeometry y="26" width="140" height="26" as="geometry"/>
                </mxCell>
                <mxCell id="46" value="Premium = 2" style="text;strokeColor=none;fillColor=none;align=left;verticalAlign=top;spacingLeft=4;spacingRight=4;overflow=hidden;rotatable=0;points=[[0,0.5],[1,0.5]];portConstraint=eastwest;whiteSpace=wrap;html=1;" vertex="1" parent="44">
                    <mxGeometry y="52" width="140" height="26" as="geometry"/>
                </mxCell>
                <mxCell id="47" value="Educational = 3" style="text;strokeColor=none;fillColor=none;align=left;verticalAlign=top;spacingLeft=4;spacingRight=4;overflow=hidden;rotatable=0;points=[[0,0.5],[1,0.5]];portConstraint=eastwest;whiteSpace=wrap;html=1;" vertex="1" parent="44">
                    <mxGeometry y="78" width="140" height="26" as="geometry"/>
                </mxCell>
                <mxCell id="48" value="WebSite" style="swimlane;" vertex="1" parent="1">
                    <mxGeometry x="1190" y="270" width="330" height="220" as="geometry"/>
                </mxCell>
                <mxCell id="65" value="CreateSubscription(SubscriptionTypes type) : Subscription" style="text;html=1;align=center;verticalAlign=middle;resizable=0;points=[];autosize=1;strokeColor=none;fillColor=none;" vertex="1" parent="48">
                    <mxGeometry y="190" width="330" height="30" as="geometry"/>
                </mxCell>
                <mxCell id="66" value="User : User" style="text;html=1;align=center;verticalAlign=middle;resizable=0;points=[];autosize=1;strokeColor=none;fillColor=none;" vertex="1" parent="48">
                    <mxGeometry y="30" width="80" height="30" as="geometry"/>
                </mxCell>
                <mxCell id="82" value="" style="line;strokeWidth=2;html=1;" vertex="1" parent="48">
                    <mxGeometry y="70" width="330" height="10" as="geometry"/>
                </mxCell>
                <mxCell id="83" value="SubscriptionDurationDays : uint?" style="text;html=1;align=center;verticalAlign=middle;resizable=0;points=[];autosize=1;strokeColor=none;fillColor=none;" vertex="1" parent="48">
                    <mxGeometry x="-2" y="44" width="200" height="30" as="geometry"/>
                </mxCell>
                <mxCell id="84" value="SetUserName(string name) : void" style="text;html=1;align=center;verticalAlign=middle;resizable=0;points=[];autosize=1;strokeColor=none;fillColor=none;" vertex="1" parent="48">
                    <mxGeometry x="-2" y="80" width="200" height="30" as="geometry"/>
                </mxCell>
                <mxCell id="85" value="SetUserEmail(string email) ; void" style="text;html=1;align=center;verticalAlign=middle;resizable=0;points=[];autosize=1;strokeColor=none;fillColor=none;" vertex="1" parent="48">
                    <mxGeometry x="-2" y="105" width="200" height="30" as="geometry"/>
                </mxCell>
                <mxCell id="86" value="SetUserPhoneNumber(string phoneNumber) : void" style="text;html=1;align=center;verticalAlign=middle;resizable=0;points=[];autosize=1;strokeColor=none;fillColor=none;" vertex="1" parent="48">
                    <mxGeometry y="130" width="290" height="30" as="geometry"/>
                </mxCell>
                <mxCell id="87" value="ChooseSubscriptionType() : SubscriptionTypes" style="text;html=1;align=center;verticalAlign=middle;resizable=0;points=[];autosize=1;strokeColor=none;fillColor=none;" vertex="1" parent="48">
                    <mxGeometry y="150" width="270" height="30" as="geometry"/>
                </mxCell>
                <mxCell id="90" value="ChooseSubscriptionDuration() : void" style="text;html=1;align=center;verticalAlign=middle;resizable=0;points=[];autosize=1;strokeColor=none;fillColor=none;" vertex="1" parent="48">
                    <mxGeometry y="170" width="220" height="30" as="geometry"/>
                </mxCell>
                <mxCell id="53" value="ISubscriptionDistributor" style="swimlane;startSize=23;" vertex="1" parent="1">
                    <mxGeometry x="1330" y="50" width="330" height="70" as="geometry"/>
                </mxCell>
                <mxCell id="54" value="CreateSubscription(SubscriptionTypes type) : Subscription" style="text;html=1;align=center;verticalAlign=middle;resizable=0;points=[];autosize=1;strokeColor=none;fillColor=none;" vertex="1" parent="53">
                    <mxGeometry y="35" width="330" height="30" as="geometry"/>
                </mxCell>
                <mxCell id="62" value="takes in" style="text;html=1;align=center;verticalAlign=middle;resizable=0;points=[];autosize=1;strokeColor=none;fillColor=none;rotation=-10;" vertex="1" parent="1">
                    <mxGeometry x="1100" y="123" width="60" height="30" as="geometry"/>
                </mxCell>
                <mxCell id="64" value="returns" style="text;html=1;align=center;verticalAlign=middle;resizable=0;points=[];autosize=1;strokeColor=none;fillColor=none;" vertex="1" parent="1">
                    <mxGeometry x="950" y="50" width="60" height="30" as="geometry"/>
                </mxCell>
                <mxCell id="67" value="User" style="swimlane;whiteSpace=wrap;html=1;" vertex="1" parent="1">
                    <mxGeometry x="900" y="280" width="200" height="200" as="geometry"/>
                </mxCell>
                <mxCell id="70" value="PhoneNumber : string" style="text;html=1;align=center;verticalAlign=middle;resizable=0;points=[];autosize=1;strokeColor=none;fillColor=none;" vertex="1" parent="67">
                    <mxGeometry x="-5" y="75" width="140" height="30" as="geometry"/>
                </mxCell>
                <mxCell id="71" value="Subscription : Subscription" style="text;html=1;align=center;verticalAlign=middle;resizable=0;points=[];autosize=1;strokeColor=none;fillColor=none;" vertex="1" parent="67">
                    <mxGeometry x="-5" y="100" width="170" height="30" as="geometry"/>
                </mxCell>
                <mxCell id="68" value="Name : string" style="text;html=1;align=center;verticalAlign=middle;resizable=0;points=[];autosize=1;strokeColor=none;fillColor=none;" vertex="1" parent="1">
                    <mxGeometry x="895" y="305" width="90" height="30" as="geometry"/>
                </mxCell>
                <mxCell id="69" value="Email : string" style="text;html=1;align=center;verticalAlign=middle;resizable=0;points=[];autosize=1;strokeColor=none;fillColor=none;" vertex="1" parent="1">
                    <mxGeometry x="895" y="330" width="90" height="30" as="geometry"/>
                </mxCell>
                <mxCell id="77" value="" style="endArrow=none;startArrow=diamondThin;endFill=0;startFill=0;html=1;verticalAlign=bottom;labelBackgroundColor=none;strokeWidth=1;startSize=8;endSize=8;entryX=1.008;entryY=0.04;entryDx=0;entryDy=0;entryPerimeter=0;" edge="1" parent="1" target="2">
                    <mxGeometry width="160" relative="1" as="geometry">
                        <mxPoint x="900" y="395" as="sourcePoint"/>
                        <mxPoint x="1130" y="440" as="targetPoint"/>
                    </mxGeometry>
                </mxCell>
                <mxCell id="79" value="" style="endArrow=none;startArrow=diamondThin;endFill=0;startFill=0;html=1;verticalAlign=bottom;labelBackgroundColor=none;strokeWidth=1;startSize=8;endSize=8;exitX=-0.012;exitY=0.388;exitDx=0;exitDy=0;exitPerimeter=0;entryX=1.006;entryY=0.114;entryDx=0;entryDy=0;entryPerimeter=0;" edge="1" parent="1" source="54" target="44">
                    <mxGeometry width="160" relative="1" as="geometry">
                        <mxPoint x="970" y="410" as="sourcePoint"/>
                        <mxPoint x="1130" y="410" as="targetPoint"/>
                    </mxGeometry>
                </mxCell>
                <mxCell id="80" value="" style="endArrow=none;startArrow=diamondThin;endFill=0;startFill=0;html=1;verticalAlign=bottom;labelBackgroundColor=none;strokeWidth=1;startSize=8;endSize=8;exitX=-0.008;exitY=0.545;exitDx=0;exitDy=0;exitPerimeter=0;entryX=0.999;entryY=0.036;entryDx=0;entryDy=0;entryPerimeter=0;" edge="1" parent="1" source="54" target="2">
                    <mxGeometry width="160" relative="1" as="geometry">
                        <mxPoint x="1336.04" y="106.6400000000001" as="sourcePoint"/>
                        <mxPoint x="1080.8400000000001" y="174.856" as="targetPoint"/>
                    </mxGeometry>
                </mxCell>
                <mxCell id="81" value="" style="endArrow=none;startArrow=diamondThin;endFill=0;startFill=0;html=1;verticalAlign=bottom;labelBackgroundColor=none;strokeWidth=1;startSize=8;endSize=8;exitX=-0.011;exitY=0.437;exitDx=0;exitDy=0;exitPerimeter=0;entryX=0.996;entryY=0.06;entryDx=0;entryDy=0;entryPerimeter=0;" edge="1" parent="1" source="66" target="67">
                    <mxGeometry width="160" relative="1" as="geometry">
                        <mxPoint x="1346.04" y="116.6400000000001" as="sourcePoint"/>
                        <mxPoint x="1090.8400000000001" y="184.856" as="targetPoint"/>
                    </mxGeometry>
                </mxCell>
                <mxCell id="88" value="" style="endArrow=none;startArrow=diamondThin;endFill=0;startFill=0;html=1;verticalAlign=bottom;labelBackgroundColor=none;strokeWidth=1;startSize=8;endSize=8;exitX=-0.005;exitY=0.476;exitDx=0;exitDy=0;exitPerimeter=0;entryX=1.015;entryY=0.114;entryDx=0;entryDy=0;entryPerimeter=0;" edge="1" parent="1" source="87" target="44">
                    <mxGeometry width="160" relative="1" as="geometry">
                        <mxPoint x="1199.12" y="323.1100000000001" as="sourcePoint"/>
                        <mxPoint x="1109.1999999999998" y="302" as="targetPoint"/>
                    </mxGeometry>
                </mxCell>
                <mxCell id="89" value="returns" style="text;html=1;align=center;verticalAlign=middle;resizable=0;points=[];autosize=1;strokeColor=none;fillColor=none;rotation=60;" vertex="1" parent="1">
                    <mxGeometry x="1140" y="355" width="60" height="30" as="geometry"/>
                </mxCell>
                <mxCell id="91" value="ManagerCall" style="swimlane;whiteSpace=wrap;html=1;" vertex="1" parent="1">
                    <mxGeometry x="1580" y="270" width="330" height="90" as="geometry"/>
                </mxCell>
                <mxCell id="92" value="User : User" style="text;html=1;align=center;verticalAlign=middle;resizable=0;points=[];autosize=1;strokeColor=none;fillColor=none;" vertex="1" parent="91">
                    <mxGeometry y="30" width="80" height="30" as="geometry"/>
                </mxCell>
                <mxCell id="94" value="CreateSubscription(SubscriptionTypes type) : Subscription" style="text;html=1;align=center;verticalAlign=middle;resizable=0;points=[];autosize=1;strokeColor=none;fillColor=none;" vertex="1" parent="91">
                    <mxGeometry y="60" width="330" height="30" as="geometry"/>
                </mxCell>
                <mxCell id="93" value="" style="line;strokeWidth=2;html=1;" vertex="1" parent="1">
                    <mxGeometry x="1580" y="325" width="330" height="10" as="geometry"/>
                </mxCell>
                <mxCell id="95" value="" style="endArrow=none;startArrow=diamondThin;endFill=0;startFill=0;html=1;verticalAlign=bottom;labelBackgroundColor=none;strokeWidth=1;startSize=8;endSize=8;entryX=1.015;entryY=0.114;entryDx=0;entryDy=0;entryPerimeter=0;exitX=-0.006;exitY=0.575;exitDx=0;exitDy=0;exitPerimeter=0;" edge="1" parent="1" source="94">
                    <mxGeometry width="160" relative="1" as="geometry">
                        <mxPoint x="1570" y="340" as="sourcePoint"/>
                        <mxPoint x="1082.1000000000004" y="174.856" as="targetPoint"/>
                        <Array as="points">
                            <mxPoint x="1550" y="250"/>
                        </Array>
                    </mxGeometry>
                </mxCell>
                <mxCell id="96" value="returns" style="text;html=1;align=center;verticalAlign=middle;resizable=0;points=[];autosize=1;strokeColor=none;fillColor=none;rotation=15;" vertex="1" parent="1">
                    <mxGeometry x="1510" y="220" width="60" height="30" as="geometry"/>
                </mxCell>
                <mxCell id="97" value="MobileApp" style="swimlane;whiteSpace=wrap;html=1;" vertex="1" parent="1">
                    <mxGeometry x="1970" y="270" width="330" height="130" as="geometry"/>
                </mxCell>
                <mxCell id="98" value="User : User" style="text;html=1;align=center;verticalAlign=middle;resizable=0;points=[];autosize=1;strokeColor=none;fillColor=none;" vertex="1" parent="97">
                    <mxGeometry y="25" width="80" height="30" as="geometry"/>
                </mxCell>
                <mxCell id="100" value="CreateSubscription(SubscriptionTypes type) : Subscription" style="text;html=1;align=center;verticalAlign=middle;resizable=0;points=[];autosize=1;strokeColor=none;fillColor=none;" vertex="1" parent="97">
                    <mxGeometry x="-5" y="100" width="330" height="30" as="geometry"/>
                </mxCell>
                <mxCell id="99" value="" style="line;strokeWidth=2;html=1;" vertex="1" parent="97">
                    <mxGeometry y="80" width="330" height="10" as="geometry"/>
                </mxCell>
                <mxCell id="101" value="UserAccountSetup : bool = false" style="text;html=1;align=center;verticalAlign=middle;resizable=0;points=[];autosize=1;strokeColor=none;fillColor=none;" vertex="1" parent="97">
                    <mxGeometry x="-10" y="50" width="200" height="30" as="geometry"/>
                </mxCell>
                <mxCell id="102" value="SetupUserAccount() : void" style="text;html=1;align=center;verticalAlign=middle;resizable=0;points=[];autosize=1;strokeColor=none;fillColor=none;" vertex="1" parent="97">
                    <mxGeometry x="-5" y="85" width="160" height="30" as="geometry"/>
                </mxCell>
                <mxCell id="103" value="" style="endArrow=none;startArrow=diamondThin;endFill=0;startFill=0;html=1;verticalAlign=bottom;labelBackgroundColor=none;strokeWidth=1;startSize=8;endSize=8;entryX=1.015;entryY=0.114;entryDx=0;entryDy=0;entryPerimeter=0;exitX=0.059;exitY=1.075;exitDx=0;exitDy=0;exitPerimeter=0;" edge="1" parent="1" source="102">
                    <mxGeometry width="160" relative="1" as="geometry">
                        <mxPoint x="1588.02" y="357.25" as="sourcePoint"/>
                        <mxPoint x="1092.1000000000004" y="184.856" as="targetPoint"/>
                        <Array as="points">
                            <mxPoint x="1920" y="240"/>
                        </Array>
                    </mxGeometry>
                </mxCell>
                <mxCell id="104" value="returns" style="text;html=1;align=center;verticalAlign=middle;resizable=0;points=[];autosize=1;strokeColor=none;fillColor=none;rotation=60;" vertex="1" parent="1">
                    <mxGeometry x="1920" y="250" width="60" height="30" as="geometry"/>
                </mxCell>
                <mxCell id="105" value="" style="endArrow=block;startArrow=none;endFill=0;startFill=0;endSize=8;html=1;verticalAlign=bottom;dashed=1;labelBackgroundColor=none;exitX=0.5;exitY=0;exitDx=0;exitDy=0;entryX=0.5;entryY=1;entryDx=0;entryDy=0;" edge="1" parent="1" source="48" target="53">
                    <mxGeometry width="160" relative="1" as="geometry">
                        <mxPoint x="1660" y="410" as="sourcePoint"/>
                        <mxPoint x="1820" y="410" as="targetPoint"/>
                        <Array as="points">
                            <mxPoint x="1355" y="180"/>
                            <mxPoint x="1495" y="180"/>
                        </Array>
                    </mxGeometry>
                </mxCell>
                <mxCell id="109" value="" style="endArrow=block;startArrow=none;endFill=0;startFill=0;endSize=8;html=1;verticalAlign=bottom;dashed=1;labelBackgroundColor=none;exitX=0.5;exitY=0;exitDx=0;exitDy=0;entryX=0.5;entryY=1;entryDx=0;entryDy=0;" edge="1" parent="1" source="91">
                    <mxGeometry width="160" relative="1" as="geometry">
                        <mxPoint x="1355" y="270" as="sourcePoint"/>
                        <mxPoint x="1495" y="120" as="targetPoint"/>
                        <Array as="points">
                            <mxPoint x="1745" y="180"/>
                            <mxPoint x="1495" y="180"/>
                        </Array>
                    </mxGeometry>
                </mxCell>
                <mxCell id="110" value="" style="endArrow=block;startArrow=none;endFill=0;startFill=0;endSize=8;html=1;verticalAlign=bottom;dashed=1;labelBackgroundColor=none;exitX=0.5;exitY=0;exitDx=0;exitDy=0;entryX=0.5;entryY=1;entryDx=0;entryDy=0;" edge="1" parent="1" source="97">
                    <mxGeometry width="160" relative="1" as="geometry">
                        <mxPoint x="1745" y="270" as="sourcePoint"/>
                        <mxPoint x="1495" y="120" as="targetPoint"/>
                        <Array as="points">
                            <mxPoint x="2130" y="180"/>
                            <mxPoint x="1495" y="180"/>
                        </Array>
                    </mxGeometry>
                </mxCell>
            </root>
        </mxGraphModel>
    </diagram>
</mxfile>